# xmcd CD database file
#
# Track frame offsets:
#	150
#	18657
#	32812
#	58387
#	70850
#	78315
#	100990
#	121907
#	129532
#	156627
#	172387
#	199230
#
# Disc length: 2891 seconds
#
# Revision: 4
# Processed by: cddbd v1.5.2PL0 Copyright (c) Steve Scherf et al.
# Submitted via: CDex 1.51
#
DISCID=b50b490c
DTITLE=Acoustic Club - FAIRY RING
DYEAR=1987
DGENRE=New Age
TTITLE0=STERN VON AFRIKA
TTITLE1=DINETTE
TTITLE2=FARM SLOPE
TTITLE3=SOFTLY AS IN A MORNING SUNRISE
TTITLE4=TRIANGLE DOME
TTITLE5=SHIP
TTITLE6=FAIRY RING
TTITLE7=CARTA PRA ARTO
TTITLE8=PANDORA FROTH
TTITLE9=EL CANT PARA CONTINENTE
TTITLE10=BLUE SANDS
TTITLE11=NIJINSKY
EXTD=
EXTT0=
EXTT1=
EXTT2=
EXTT3=
EXTT4=
EXTT5=
EXTT6=
EXTT7=
EXTT8=
EXTT9=
EXTT10=
EXTT11=
PLAYORDER=
